<?xml version="1.0" encoding="UTF-8"?>
<svg width="24px" height="24px" viewBox="0 0 24 24" version="1.1" xmlns="http://www.w3.org/2000/svg" xmlns:xlink="http://www.w3.org/1999/xlink">
    <title>facebook (1)</title>
    <g id="Page-1" stroke="none" stroke-width="1" fill="none" fill-rule="evenodd">
        <g id="Главная_Обмен" transform="translate(-1157.000000, -1351.000000)" fill="#000000" fill-rule="nonzero">
            <g id="Footer" transform="translate(0.000000, 1167.000000)">
                <g id="facebook-(1)" transform="translate(1157.000000, 184.000000)">
                    <path d="M21.1875,0 L2.8125,0 C1.26159666,0 0,1.26159666 0,2.8125 L0,21.1875 C0,22.7384033 1.26159666,24 2.8125,24 L21.1875,24 C22.7384033,24 24,22.7384033 24,21.1875 L24,2.8125 C24,1.26159666 22.7384033,0 21.1875,0 Z M22.125,21.1875 C22.125,21.7044068 21.7044068,22.125 21.1875,22.125 L15.65625,22.125 L15.65625,14.9993739 L18.6575317,14.9993739 L19.0072632,12.375 L15.65625,12.375 L15.65625,9.234375 C15.65625,8.43273928 16.2608643,7.828125 17.0625,7.828125 L19.171875,7.828125 L19.171875,5.42262535 C18.6166992,5.34425621 17.5457153,5.23512535 17.0625,5.23512535 C15.9691772,5.23512535 14.873291,5.69636804 14.0559082,6.50038417 C13.2138061,7.32875326 12.9665163,8.10058594 12.9665163,9.24261473 L12.9665163,12.375 L9.703125,12.375 L9.703125,14.9993739 L12.9665163,14.9993739 L12.9665163,22.125 L2.8125,22.125 C2.29559325,22.125 1.875,21.7044068 1.875,21.1875 L1.875,2.8125 C1.875,2.29559325 2.29559325,1.875 2.8125,1.875 L21.1875,1.875 C21.7044068,1.875 22.125,2.29559325 22.125,2.8125 L22.125,21.1875 Z" id="Shape"></path>
                </g>
            </g>
        </g>
    </g>
</svg>