<?xml version="1.0" encoding="UTF-8"?>
<svg width="39px" height="39px" viewBox="0 0 39 39" version="1.1" xmlns="http://www.w3.org/2000/svg" xmlns:xlink="http://www.w3.org/1999/xlink">
    <title>Group 2 Copy</title>
    <defs>
        <path d="M3.42885049,3.42233937 C-1.14295016,7.98536084 -1.14295016,15.3836749 3.42885049,19.9466963 L3.42885049,19.9466963 C8.00065115,24.5097178 15.4131994,24.5097178 19.9850001,19.9466963 L19.9850001,19.9466963 C24.5568007,15.3836749 24.5568007,7.98536084 19.9850001,3.42233937 L19.9850001,3.42233937 C17.6989529,1.14097518 14.7028657,0 11.7067785,0 L11.7067785,0 C8.71098488,0 5.71489765,1.14097518 3.42885049,3.42233937" id="path-1"></path>
        <linearGradient x1="14.6445014%" y1="14.7799444%" x2="82.8080294%" y2="84.5215963%" id="linearGradient-3">
            <stop stop-color="#5200EB" offset="0%"></stop>
            <stop stop-color="#FFFFFF" stop-opacity="0" offset="100%"></stop>
        </linearGradient>
        <path d="M3.42885049,3.42204629 C-1.14295016,7.98506776 -1.14295016,15.3833818 3.42885049,19.9464032 L3.42885049,19.9464032 C8.00065115,24.5094247 15.4131994,24.5094247 19.9850001,19.9464032 L19.9850001,19.9464032 C24.5568007,15.3833818 24.5568007,7.98506776 19.9850001,3.42204629 L19.9850001,3.42204629 C17.6989529,1.1406821 14.7028657,0 11.7067785,0 L11.7067785,0 C8.71098488,0 5.71489765,1.1406821 3.42885049,3.42204629" id="path-4"></path>
        <linearGradient x1="14.6445014%" y1="14.7808278%" x2="82.8080294%" y2="84.5207304%" id="linearGradient-6">
            <stop stop-color="#FFFFFF" stop-opacity="0" offset="0%"></stop>
            <stop stop-color="#5200EB" offset="100%"></stop>
        </linearGradient>
    </defs>
    <g id="Symbols" stroke="none" stroke-width="1" fill="none" fill-rule="evenodd">
        <g id="Group-2-Copy" transform="translate(8.000000, 0.000000)">
            <g id="Group-4">
                <mask id="mask-2" fill="white">
                    <use xlink:href="#path-1"></use>
                </mask>
                <g id="Clip-3"></g>
                <path d="M3.42885049,3.42233937 C-1.14295016,7.98536084 -1.14295016,15.3836749 3.42885049,19.9466963 L3.42885049,19.9466963 C8.00065115,24.5097178 15.4131994,24.5097178 19.9850001,19.9466963 L19.9850001,19.9466963 C24.5568007,15.3836749 24.5568007,7.98536084 19.9850001,3.42233937 L19.9850001,3.42233937 C17.6989529,1.14097518 14.7028657,0 11.7067785,0 L11.7067785,0 C8.71098488,0 5.71489765,1.14097518 3.42885049,3.42233937" id="Fill-2" fill="url(#linearGradient-3)" mask="url(#mask-2)"></path>
            </g>
            <g id="Group-7" transform="translate(0.000000, 15.631331)">
                <mask id="mask-5" fill="white">
                    <use xlink:href="#path-4"></use>
                </mask>
                <g id="Clip-6"></g>
                <path d="M3.42885049,3.42204629 C-1.14295016,7.98506776 -1.14295016,15.3833818 3.42885049,19.9464032 L3.42885049,19.9464032 C8.00065115,24.5094247 15.4131994,24.5094247 19.9850001,19.9464032 L19.9850001,19.9464032 C24.5568007,15.3833818 24.5568007,7.98506776 19.9850001,3.42204629 L19.9850001,3.42204629 C17.6989529,1.1406821 14.7028657,0 11.7067785,0 L11.7067785,0 C8.71098488,0 5.71489765,1.1406821 3.42885049,3.42204629" id="Fill-5" fill="url(#linearGradient-6)" mask="url(#mask-5)"></path>
            </g>
        </g>
    </g>
</svg>