<?xml version="1.0" encoding="UTF-8"?>
<svg width="24px" height="24px" viewBox="0 0 24 24" version="1.1" xmlns="http://www.w3.org/2000/svg" xmlns:xlink="http://www.w3.org/1999/xlink">
    <title>instagram (2)</title>
    <g id="Page-1" stroke="none" stroke-width="1" fill="none" fill-rule="evenodd">
        <g id="Главная_Обмен" transform="translate(-1121.000000, -1351.000000)" fill="#000000" fill-rule="nonzero">
            <g id="Footer" transform="translate(0.000000, 1167.000000)">
                <g id="instagram-(2)" transform="translate(1121.000000, 184.000000)">
                    <path d="M12.2366728,24 C12.157202,24 12.0777313,24 11.9977111,23.9996338 C10.1164137,24.0042114 8.37812719,23.9564208 6.68763302,23.8535152 C5.13776921,23.7592156 3.72304241,23.2236306 2.59616835,22.3048048 C1.50884662,21.4182056 0.766325608,20.2194108 0.3892971,18.7421117 C0.061159583,17.4559753 0.0437638882,16.1934596 0.0271006432,14.9723257 C0.0150151978,14.0961636 0.00256357435,13.0579527 0,12.0021636 C0.00256357435,10.94198 0.0150151978,9.90376905 0.0271006432,9.02760693 C0.0437638882,7.80665624 0.061159583,6.54414048 0.3892971,5.25782097 C0.766325608,3.7805219 1.50884662,2.58172702 2.59616835,1.69512783 C3.72304241,0.776302035 5.13776921,0.240717048 6.68781616,0.146417455 C8.37831034,0.043695011 10.1169631,-0.00427877051 12.0022889,0.000298881397 C13.8841356,-0.00372945022 15.6218728,0.043695011 17.3123669,0.146417455 C18.8622307,0.240717048 20.2769576,0.776302035 21.4038316,1.69512783 C22.4913365,2.58172702 23.2336743,3.7805219 23.6107029,5.25782097 C23.9388404,6.54395739 23.9562361,7.80665624 23.9728994,9.02760693 C23.9849848,9.90376905 23.9976195,10.94198 24,11.9977691 L24,12.0021636 C23.9976195,13.0579527 23.9849848,14.0961636 23.9728994,14.9723257 C23.9562361,16.1932764 23.9390236,17.4557922 23.6107029,18.7421117 C23.2336743,20.2194108 22.4913365,21.4182056 21.4038316,22.3048048 C20.2769576,23.2236306 18.8622307,23.7592156 17.3123669,23.8535152 C15.6934697,23.9520262 14.0304425,24 12.2366728,24 Z M11.9977111,22.1246286 C13.8484287,22.1290231 15.5477122,22.0823311 17.198471,21.981989 C18.3703907,21.9107608 19.3864817,21.5304496 20.2189109,20.8516758 C20.9883495,20.2241715 21.5182769,19.3584465 21.7938612,18.2784874 C22.0670649,17.2078667 22.0828126,16.0583273 22.0980109,14.9466909 C22.1099132,14.0763882 22.1223649,13.0455015 22.1249285,11.9999663 C22.1223649,10.9542481 22.1099132,9.92354449 22.0980109,9.05324177 C22.0828126,7.94160534 22.0670649,6.79206601 21.7938612,5.72126222 C21.5182769,4.64130311 20.9883495,3.77557803 20.2189109,3.14807381 C19.3864817,2.46948307 18.3703907,2.08917191 17.198471,2.01794369 C15.5477122,1.91741852 13.8484287,1.87109272 12.0021058,1.87512102 C10.1517544,1.87072648 8.45228777,1.91741852 6.80152899,2.01794369 C5.62960928,2.08917191 4.61351829,2.46948307 3.78108905,3.14807381 C3.01165054,3.77557803 2.48172308,4.64130311 2.20613884,5.72126222 C1.93293506,6.79206601 1.91718742,7.94142225 1.90198907,9.05324177 C1.89008673,9.92427692 1.87763513,10.9557129 1.87507153,12.0021636 C1.87763513,13.0440367 1.89008673,14.0756558 1.90198907,14.9466909 C1.91718742,16.0583273 1.93293506,17.2078667 2.20613884,18.2784874 C2.48172308,19.3584465 3.01165054,20.2241715 3.78108905,20.8516758 C4.61351829,21.5302665 5.62960928,21.9105776 6.80152899,21.9818058 C8.45228777,22.0823311 10.1521206,22.1292062 11.9977111,22.1246286 Z M11.9530316,17.8593578 C8.7221955,17.8593578 6.09343311,15.2308714 6.09343311,11.9999663 C6.09343311,8.76906129 8.7221955,6.1405749 11.9530316,6.1405749 C15.1840509,6.1405749 17.8126302,8.76906129 17.8126302,11.9999663 C17.8126302,15.2308714 15.1840509,17.8593578 11.9530316,17.8593578 Z M11.9530316,8.01558016 C9.75604844,8.01558016 7.96850464,9.80306073 7.96850464,11.9999663 C7.96850464,14.1968719 9.75604844,15.9843525 11.9530316,15.9843525 C14.150198,15.9843525 15.9375586,14.1968719 15.9375586,11.9999663 C15.9375586,9.80306073 14.150198,8.01558016 11.9530316,8.01558016 L11.9530316,8.01558016 Z M18.4689052,4.26556964 C17.6923253,4.26556964 17.0626016,4.89508803 17.0626016,5.67182358 C17.0626016,6.44855914 17.6923253,7.07807753 18.4689052,7.07807753 C19.2456682,7.07807753 19.8752088,6.44855914 19.8752088,5.67182358 C19.8752088,4.89508803 19.2456682,4.26556964 18.4689052,4.26556964 Z" id="Shape"></path>
                </g>
            </g>
        </g>
    </g>
</svg>