<?xml version="1.0" encoding="UTF-8"?>
<svg width="83px" height="39px" viewBox="0 0 83 39" version="1.1" xmlns="http://www.w3.org/2000/svg" xmlns:xlink="http://www.w3.org/1999/xlink">
    <title>Logo</title>
    <defs>
        <path d="M3.42885049,3.42233937 C-1.14295016,7.98536084 -1.14295016,15.3836749 3.42885049,19.9466963 L3.42885049,19.9466963 C8.00065115,24.5097178 15.4131994,24.5097178 19.9850001,19.9466963 L19.9850001,19.9466963 C24.5568007,15.3836749 24.5568007,7.98536084 19.9850001,3.42233937 L19.9850001,3.42233937 C17.6989529,1.14097518 14.7028657,0 11.7067785,0 L11.7067785,0 C8.71098488,0 5.71489765,1.14097518 3.42885049,3.42233937" id="path-1"></path>
        <linearGradient x1="14.6445014%" y1="14.7799444%" x2="82.8080294%" y2="84.5215963%" id="linearGradient-3">
            <stop stop-color="#5200EB" offset="0%"></stop>
            <stop stop-color="#FFFFFF" stop-opacity="0" offset="100%"></stop>
        </linearGradient>
        <path d="M3.42885049,3.42204629 C-1.14295016,7.98506776 -1.14295016,15.3833818 3.42885049,19.9464032 L3.42885049,19.9464032 C8.00065115,24.5094247 15.4131994,24.5094247 19.9850001,19.9464032 L19.9850001,19.9464032 C24.5568007,15.3833818 24.5568007,7.98506776 19.9850001,3.42204629 L19.9850001,3.42204629 C17.6989529,1.1406821 14.7028657,0 11.7067785,0 L11.7067785,0 C8.71098488,0 5.71489765,1.1406821 3.42885049,3.42204629" id="path-4"></path>
        <linearGradient x1="14.6445014%" y1="14.7808278%" x2="82.8080294%" y2="84.5207304%" id="linearGradient-6">
            <stop stop-color="#FFFFFF" stop-opacity="0" offset="0%"></stop>
            <stop stop-color="#5200EB" offset="100%"></stop>
        </linearGradient>
    </defs>
    <g id="Symbols" stroke="none" stroke-width="1" fill="none" fill-rule="evenodd">
        <g id="Header" transform="translate(-120.000000, -21.000000)">
            <g id="Logo" transform="translate(120.000000, 21.000000)">
                <g id="Group-2">
                    <g id="Group-4">
                        <mask id="mask-2" fill="white">
                            <use xlink:href="#path-1"></use>
                        </mask>
                        <g id="Clip-3"></g>
                        <path d="M3.42885049,3.42233937 C-1.14295016,7.98536084 -1.14295016,15.3836749 3.42885049,19.9466963 L3.42885049,19.9466963 C8.00065115,24.5097178 15.4131994,24.5097178 19.9850001,19.9466963 L19.9850001,19.9466963 C24.5568007,15.3836749 24.5568007,7.98536084 19.9850001,3.42233937 L19.9850001,3.42233937 C17.6989529,1.14097518 14.7028657,0 11.7067785,0 L11.7067785,0 C8.71098488,0 5.71489765,1.14097518 3.42885049,3.42233937" id="Fill-2" fill="url(#linearGradient-3)" mask="url(#mask-2)"></path>
                    </g>
                    <g id="Group-7" transform="translate(0.000000, 15.631331)">
                        <mask id="mask-5" fill="white">
                            <use xlink:href="#path-4"></use>
                        </mask>
                        <g id="Clip-6"></g>
                        <path d="M3.42885049,3.42204629 C-1.14295016,7.98506776 -1.14295016,15.3833818 3.42885049,19.9464032 L3.42885049,19.9464032 C8.00065115,24.5094247 15.4131994,24.5094247 19.9850001,19.9464032 L19.9850001,19.9464032 C24.5568007,15.3833818 24.5568007,7.98506776 19.9850001,3.42204629 L19.9850001,3.42204629 C17.6989529,1.1406821 14.7028657,0 11.7067785,0 L11.7067785,0 C8.71098488,0 5.71489765,1.1406821 3.42885049,3.42204629" id="Fill-5" fill="url(#linearGradient-6)" mask="url(#mask-5)"></path>
                    </g>
                </g>
                <g id="Group-22" transform="translate(34.651145, 2.030895)" fill="#17171A">
                    <path d="M2.32187217,16.2227444 C1.62240341,15.9325915 1.0606554,15.5052753 0.63662816,14.9405029 C0.212013622,14.3757304 0,13.7092579 0,12.9404991 L2.21586536,12.9404991 C2.21586536,13.4428447 2.44755338,13.842611 2.91122305,14.1406772 C3.37459909,14.4384503 3.9604262,14.58763 4.6675298,14.58763 C5.39019673,14.58763 5.94842096,14.4460705 6.34132155,14.1641239 C6.73363485,13.8815911 6.93037879,13.5052716 6.93037879,13.034579 C6.93037879,12.516993 6.71014303,12.1488798 6.27055246,11.9287739 C5.8303746,11.7095472 5.14676281,11.4976476 4.2197171,11.2936613 C3.37078167,11.1052084 2.67924139,10.9135316 2.14509627,10.7171655 C1.6106575,10.5210925 1.15109889,10.1916663 0.766126785,9.72888698 C0.380861035,9.26640076 0.188521808,8.6348052 0.188521808,7.83497955 C0.188521808,7.19195372 0.380861035,6.619268 0.766126785,6.11750856 C1.15109889,5.61574912 1.67731552,5.22330993 2.34536398,4.94107024 C3.0131188,4.65853747 3.74811893,4.51756417 4.54977708,4.51756417 C5.80658914,4.51756417 6.83993531,4.83145691 7.64981559,5.45836313 C8.45881494,6.0861486 8.86346144,6.94869418 8.86346144,8.04687913 L6.64759608,8.04687913 C6.64759608,7.60754653 6.43910623,7.25086356 6.02300747,6.97595097 C5.60661507,6.70191763 5.09948553,6.56446134 4.50249981,6.56446134 C3.92078376,6.56446134 3.44155076,6.69781446 3.06450714,6.96422762 C2.68716988,7.23122695 2.49894172,7.57618657 2.49894172,7.99939955 C2.49894172,8.43873215 2.70273321,8.75643497 3.11149077,8.95250803 C3.52024833,9.14858108 4.16421769,9.34875731 5.04457342,9.55245054 C5.90877853,9.74061033 6.62410426,9.93697646 7.18996333,10.1406697 C7.75582241,10.344656 8.23887283,10.6858055 8.63970191,11.1641183 C9.04053099,11.6427241 9.2407987,12.2974733 9.2407987,13.1286589 C9.2407987,14.2740303 8.81266039,15.1485924 7.95609012,15.752345 C7.09951985,16.3560976 5.9874761,16.6579739 4.62025253,16.6579739 C3.78717407,16.6579739 3.02104729,16.5126043 2.32187217,16.2227444" id="Fill-8"></path>
                    <path d="M17.8450573,13.917025 C18.4109164,13.5799786 18.8587291,13.1171993 19.1884955,12.5289802 C19.5185554,11.940761 19.6838791,11.293632 19.6838791,10.5878862 C19.6838791,9.8818474 19.5223729,9.2347184 19.200535,8.64679233 C18.8784035,8.05857317 18.4302972,7.59608696 17.8568032,7.25845443 C17.2830157,6.92140808 16.6425701,6.75259182 15.9354665,6.75259182 C15.2283629,6.75259182 14.5838063,6.92140808 14.0023839,7.25845443 C13.4209615,7.59608696 12.9652203,8.05857317 12.6354539,8.64679233 C12.3053939,9.2347184 12.1400703,9.8818474 12.1400703,10.5878862 C12.1400703,11.293632 12.3086241,11.940761 12.6471998,12.5289802 C12.984601,13.1171993 13.4403422,13.5799786 14.0141298,13.917025 C14.5876237,14.2543644 15.2283629,14.4228876 15.9354665,14.4228876 C16.6425701,14.4228876 17.2791983,14.2543644 17.8450573,13.917025 M12.871253,15.8463955 C11.9433264,15.3050698 11.2050961,14.5682571 10.655094,13.6344922 C10.1047983,12.7016065 9.82994403,11.6857781 9.82994403,10.5878862 C9.82994403,9.48999438 10.1047983,8.47416598 10.655094,7.54069412 C11.2050961,6.60780843 11.9433264,5.87040962 12.871253,5.32908387 C13.7982987,4.7880512 14.8116768,4.51753486 15.9119747,4.51753486 C17.0116852,4.51753486 18.025357,4.7880512 18.9526964,5.32908387 C19.8800357,5.87040962 20.6150359,6.60780843 21.1571095,7.54069412 C21.6991831,8.47416598 21.9705135,9.48999438 21.9705135,10.5878862 L21.9705135,16.4697848 L19.6603873,16.4697848 L19.6603873,14.6110474 C19.3773109,15.1916464 18.8860383,15.6778724 18.1868632,16.0700185 C17.4873945,16.4621646 16.7289025,16.6582376 15.9119747,16.6582376 C14.8116768,16.6582376 13.7982987,16.3874282 12.871253,15.8463955" id="Fill-10"></path>
                    <path d="M27.0619825,7.25851305 C26.4805601,7.59585249 26.0248189,8.0583387 25.6947589,8.64655786 C25.3646989,9.23477702 25.1996689,9.88190602 25.1996689,10.5876518 C25.1996689,11.2936906 25.3646989,11.9408196 25.6947589,12.5287457 C26.0248189,13.1169649 26.476449,13.5797442 27.0502366,13.9170836 C27.6237305,14.254423 28.2644697,14.4226531 28.9715733,14.4226531 C29.6786769,14.4226531 30.3188288,14.254423 30.8929101,13.9170836 C31.4661103,13.5797442 31.9180341,13.1169649 32.2480941,12.5287457 C32.5781541,11.9408196 32.7434777,11.2936906 32.7434777,10.5876518 C32.7434777,9.88190602 32.5781541,9.23477702 32.2480941,8.64655786 C31.9180341,8.0583387 31.4661103,7.59585249 30.8929101,7.25851305 C30.3188288,6.9214667 29.6786769,6.75235735 28.9715733,6.75235735 C28.2797394,6.75235735 27.6431112,6.9214667 27.0619825,7.25851305 L27.0619825,7.25851305 Z M22.9130345,0 L25.2466525,0 L25.2466525,6.21161777 C25.7023937,5.67820528 26.244761,5.26231938 26.8734607,4.96454626 C27.5018667,4.66648004 28.2013355,4.5173004 28.9715733,4.5173004 C30.0712839,4.5173004 31.0849556,4.78781673 32.012295,5.32914249 C32.9396344,5.87046824 33.6781583,6.60757396 34.2281604,7.54075274 C34.7781624,8.47393151 35.053604,9.48975992 35.053604,10.5876518 C35.053604,11.6855436 34.7781624,12.701372 34.2281604,13.6345508 C33.6781583,14.5680227 32.9396344,15.3051284 32.012295,15.8464542 C31.0849556,16.3871937 30.0712839,16.6580032 28.9715733,16.6580032 C27.8712755,16.6580032 26.8576037,16.3871937 25.9302643,15.8464542 C25.002925,15.3051284 24.2685121,14.5680227 23.7264385,13.6345508 C23.1843649,12.701372 22.9130345,11.6855436 22.9130345,10.5876518 L22.9130345,0 Z" id="Fill-12"></path>
                    <path d="M4.3845709,25.5387643 C3.8031485,25.8761037 3.34740731,26.3385899 3.01734732,26.9268091 C2.68728734,27.5150282 2.52225734,28.1621572 2.52225734,28.867903 C2.52225734,29.5739418 2.68728734,30.2210708 3.01734732,30.8089969 C3.34740731,31.3972161 3.79903744,31.8599954 4.372825,32.1973348 C4.94631891,32.5346743 5.58705813,32.7029043 6.29416174,32.7029043 C7.00126534,32.7029043 7.64141727,32.5346743 8.21549848,32.1973348 C8.78869874,31.8599954 9.24062251,31.3972161 9.5706825,30.8089969 C9.90074249,30.2210708 10.0660661,29.5739418 10.0660661,28.867903 C10.0660661,28.1621572 9.90074249,27.5150282 9.5706825,26.9268091 C9.24062251,26.3385899 8.78869874,25.8761037 8.21549848,25.5387643 C7.64141727,25.2017179 7.00126534,25.0326086 6.29416174,25.0326086 C5.60232781,25.0326086 4.96569965,25.2017179 4.3845709,25.5387643 L4.3845709,25.5387643 Z M0.235622895,18.2802512 L2.56924097,18.2802512 L2.56924097,24.491869 C3.02498216,23.9584565 3.56734942,23.5425706 4.19604909,23.2447975 C4.82445512,22.9467313 5.52392388,22.7975516 6.29416174,22.7975516 C7.39387228,22.7975516 8.40754406,23.068068 9.33488342,23.6093937 C10.2622228,24.1507195 11.0007467,24.8878252 11.5507488,25.821004 C12.1007509,26.7541827 12.3761924,27.7700111 12.3761924,28.867903 C12.3761924,29.9657949 12.1007509,30.9816233 11.5507488,31.914802 C11.0007467,32.8482739 10.2622228,33.5853796 9.33488342,34.1267054 C8.40754406,34.667445 7.39387228,34.9382544 6.29416174,34.9382544 C5.1938639,34.9382544 4.18019212,34.667445 3.25285276,34.1267054 C2.3255134,33.5853796 1.59110056,32.8482739 1.04902696,31.914802 C0.506953347,30.9816233 0.235622895,29.9657949 0.235622895,28.867903 L0.235622895,18.2802512 Z" id="Fill-14"></path>
                    <path d="M21.0981156,32.1972469 C21.6639747,31.8602005 22.1117874,31.3974212 22.4415538,30.8092021 C22.7716138,30.2209829 22.9369374,29.5738539 22.9369374,28.8681082 C22.9369374,28.1620693 22.7754312,27.5149403 22.4535933,26.9270142 C22.1314618,26.3387951 21.6833555,25.8763089 21.1098616,25.5386764 C20.536074,25.20163 19.8956284,25.0328137 19.1885248,25.0328137 C18.4814212,25.0328137 17.8368646,25.20163 17.2554422,25.5386764 C16.6740198,25.8763089 16.2182786,26.3387951 15.8885122,26.9270142 C15.5584523,27.5149403 15.3931286,28.1620693 15.3931286,28.8681082 C15.3931286,29.5738539 15.5616824,30.2209829 15.9002581,30.8092021 C16.2376593,31.3974212 16.6934005,31.8602005 17.2671881,32.1972469 C17.840682,32.5345863 18.4814212,32.7031095 19.1885248,32.7031095 C19.8956284,32.7031095 20.5322566,32.5345863 21.0981156,32.1972469 M16.1243113,34.1266175 C15.1963847,33.5852917 14.4581544,32.8484791 13.9081523,31.9147141 C13.3578566,30.9818284 13.0830023,29.966 13.0830023,28.8681082 C13.0830023,27.7702163 13.3578566,26.7543879 13.9081523,25.820916 C14.4581544,24.8880303 15.1963847,24.1506315 16.1243113,23.6093058 C17.051357,23.0682731 18.0647352,22.7977568 19.165033,22.7977568 C20.2647435,22.7977568 21.2784153,23.0682731 22.2057547,23.6093058 C23.133094,24.1506315 23.8680942,24.8880303 24.4101678,25.820916 C24.9522414,26.7543879 25.2235718,27.7702163 25.2235718,28.8681082 L25.2235718,34.7500067 L22.9134456,34.7500067 L22.9134456,32.8912693 C22.6303692,33.4718683 22.1390967,33.9580943 21.4399215,34.3502404 C20.7404528,34.7423865 19.9819608,34.9384595 19.165033,34.9384595 C18.0647352,34.9384595 17.051357,34.6676501 16.1243113,34.1266175" id="Fill-16"></path>
                    <path d="M36.5384334,34.7500067 L34.2283072,34.7500067 L34.2283072,28.5621287 C34.2283072,27.3856904 33.9807622,26.5032151 33.4856722,25.9149959 C32.9905822,25.3270699 32.2793676,25.0328137 31.3523218,25.0328137 C30.4249825,25.0328137 29.7140615,25.3270699 29.2189715,25.9149959 C28.7238815,26.5032151 28.4763365,27.3856904 28.4763365,28.5621287 L28.4763365,34.7500067 L26.1662102,34.7500067 L26.1662102,28.5621287 C26.1662102,26.6485846 26.6375148,25.2092502 27.5804175,24.2447114 C28.5236138,23.2798796 29.7804258,22.7977568 31.3523218,22.7977568 C32.9236306,22.7977568 34.1813235,23.2798796 35.1242262,24.2447114 C36.0671289,25.2092502 36.5384334,26.6485846 36.5384334,28.5621287 L36.5384334,34.7500067 Z" id="Fill-18"></path>
                    <polygon id="Fill-20" points="37.7170471 18.2803392 40.0271734 18.2803392 40.0271734 27.4562063 44.6239341 22.9860924 47.5709822 22.9860924 43.0446969 27.4799461 48.3488549 34.7498894 45.779144 34.7498894 41.4654597 28.938331 40.0271734 30.3266689 40.0271734 34.7498894 37.7170471 34.7498894"></polygon>
                </g>
            </g>
        </g>
    </g>
</svg>