<?xml version="1.0" encoding="UTF-8"?>
<svg width="32px" height="24px" viewBox="0 0 32 24" version="1.1" xmlns="http://www.w3.org/2000/svg" xmlns:xlink="http://www.w3.org/1999/xlink">
    <title>youtube (2)</title>
    <g id="Page-1" stroke="none" stroke-width="1" fill="none" fill-rule="evenodd">
        <g id="Главная_Обмен" transform="translate(-1193.000000, -1351.000000)" fill="#000000" fill-rule="nonzero">
            <g id="Footer" transform="translate(0.000000, 1167.000000)">
                <g id="youtube-(2)" transform="translate(1193.000000, 184.000000)">
                    <path d="M20.9253775,10.5823764 L13.8558513,6.75208507 C13.4493603,6.53185061 12.9688952,6.54007009 12.5704607,6.77384262 C12.1717821,7.00785688 11.933991,7.42124982 11.933991,7.88009187 L11.933991,15.4749184 C11.933991,15.9315847 12.1703173,16.3442524 12.5663104,16.5785084 C12.7730959,16.7008341 13.0023422,16.7622386 13.2320768,16.7622386 C13.4425244,16.7622386 13.6534603,16.7107458 13.8475506,16.6072767 L20.9173209,12.8429832 C21.3369954,12.6193642 21.5989563,12.1873564 21.6009179,11.7152182 C21.6026184,11.2430799 21.3438313,10.8091382 20.9253775,10.5823764 L20.9253775,10.5823764 Z M13.8092208,14.5195213 L13.8092208,8.84322495 L19.0928719,11.7060317 L13.8092208,14.5195213 Z" id="Shape"></path>
                    <path d="M31.7644061,5.66445064 L31.7629413,5.64994562 C31.7358419,5.39489907 31.4660686,3.12631452 30.3523075,1.97244048 C29.0649638,0.615254427 27.6055023,0.450380772 26.9036034,0.371328418 C26.8454983,0.364801145 26.7922761,0.358757404 26.744669,0.352471866 L26.6887613,0.346669859 C22.4583248,0.0420645783 16.0694575,0.000483500544 16.0054931,0.000241750272 L15.9998779,0 L15.9942627,0.000241750272 C15.9302984,0.000483500544 9.54143108,0.0420645783 5.27290902,0.346669859 L5.21651295,0.352471866 C5.17110311,0.358515669 5.12105468,0.364075879 5.06661172,0.370361417 C4.37276939,0.449655506 2.92893272,0.614770957 1.63792694,2.02103227 C0.577144035,3.16257703 0.270505749,5.38256979 0.239011864,5.63205607 L0.235349767,5.66445064 C0.22582834,5.77057902 0,8.29711107 0,10.8335549 L0,13.2046416 C0,15.7410854 0.22582834,18.2676176 0.235349767,18.3739877 L0.237058754,18.3899432 C0.26415811,18.64088 0.533687304,20.8678835 1.64232147,22.022241 C2.85276142,23.333978 4.38326731,23.5075547 5.20650328,23.6008703 C5.33662922,23.6156171 5.44868893,23.6281881 5.52510435,23.6414843 L5.59907841,23.6516379 C8.04168671,23.8817841 15.7000755,23.995165 16.0247801,23.9997583 L16.0345457,24 L16.0443112,23.9997583 C16.1082755,23.9995165 22.4968987,23.9579355 26.7273352,23.6533301 L26.7832429,23.6475281 C26.8367093,23.6405173 26.8967674,23.6342319 26.9626849,23.6274628 C27.652621,23.5549378 29.0886453,23.4043273 30.3618289,22.0171642 C31.4226118,20.8753778 31.7294943,18.655385 31.760744,18.4061404 L31.7644061,18.3737459 C31.7739275,18.2673758 32,15.7410854 32,13.2046416 L32,10.8335549 C32,8.29711107 31.7739275,5.77082076 31.7644061,5.66445064 L31.7644061,5.66445064 Z M30.1245261,13.2046416 C30.1245261,15.5522785 29.9174964,17.970023 29.8979653,18.1919497 C29.818376,18.8033362 29.4948922,20.2079053 28.9780504,20.7641726 C28.1811815,21.6322978 27.3625843,21.718361 26.7649326,21.7809742 C26.6926675,21.7884685 26.6257734,21.7957211 26.565227,21.8032153 C22.4734614,22.0962166 16.3258032,22.1411822 16.0426022,22.1428744 C15.7249777,22.1382812 8.17864854,22.0239333 5.81050255,21.8061163 C5.6891656,21.7865345 5.5580631,21.771546 5.41988053,21.7560739 C4.71895812,21.6765381 3.75949282,21.5677505 3.02170545,20.7641726 L3.00437158,20.7457996 C2.49656295,20.2219267 2.18235641,18.9084975 2.10252302,18.1992022 C2.08763057,18.0314276 1.87522982,15.5851565 1.87522982,13.2046416 L1.87522982,10.8335549 C1.87522982,8.48857728 2.08177124,6.0734921 2.10179059,5.84697205 C2.19676062,5.12679803 2.52634791,3.80732502 3.02170545,3.27402395 C3.84298824,2.37954794 4.70894845,2.2804303 5.28169796,2.21491596 C5.33638504,2.20863048 5.38741009,2.20282848 5.43452885,2.19678474 C9.58586437,1.90233287 15.7777116,1.85857609 15.9998779,1.85688382 C16.2220442,1.85833436 22.4116943,1.90233287 26.5261648,2.19678474 C26.5767016,2.20307021 26.6318769,2.20935575 26.6912026,2.21612476 C27.2803094,2.28260604 28.1706835,2.38317415 28.987816,3.24622265 L28.9953843,3.2542004 C29.5031929,3.77807325 29.8173995,5.11446875 29.8972329,5.8380273 C29.9113929,5.99637375 30.1245261,8.44796324 30.1245261,10.8335549 L30.1245261,13.2046416 Z" id="Shape"></path>
                </g>
            </g>
        </g>
    </g>
</svg>