
<svg width="17px" height="10px" viewBox="0 0 17 10" version="1.1" xmlns="http://www.w3.org/2000/svg" xmlns:xlink="http://www.w3.org/1999/xlink">
    <g id="Page-1" stroke="none" stroke-width="1" fill="none" fill-rule="evenodd">
        <g id="Настройки_2-Copy-14" transform="translate(-1278.000000, -278.000000)" fill="#17171A">
            <g id="Group-8" transform="translate(556.000000, 120.000000)">
                <g id="Icon_up" transform="translate(730.000000, 164.000000) scale(1, -1) rotate(-270.000000) translate(-730.000000, -164.000000) translate(718.000000, 152.000000)">
                    <path d="M11.1023282,11.4035512 L17.7153775,4.6806423 C17.8884311,4.5079984 17.9836311,4.27716913 17.9836311,4.0310423 C17.9836311,3.86686669 17.8379208,3.61269487 17.5465,3.26852683 C17.3737195,3.09533659 17.1427537,3 16.8966268,3 C16.6505,3 16.4198073,3.09533659 16.2468903,3.26852683 L8.76378782,10.7514927 C8.59018782,10.9249561 8.4951244,11.1567415 8.49578595,11.4031415 C8.4951244,11.6506341 8.59005123,11.8821463 8.76378782,12.0557463 L16.2399244,19.5314732 C16.4128415,19.7046634 16.6435342,19.8 16.8897976,19.8 C17.1359244,19.8 17.3059306,19.7046634 17.4789842,19.5314732 L17.7153775,19.2828635 C18.1385266,18.8597144 17.9179662,18.2113255 17.5465,17.9110275 L11.1023282,11.4035512 Z" id="Path" transform="translate(13.239709, 11.400000) scale(-1, 1) translate(-13.239709, -11.400000) "></path>
                </g>
            </g>
        </g>
    </g>
</svg>