<svg width="7px" height="12px" viewBox="0 0 7 12" version="1.1" xmlns="http://www.w3.org/2000/svg" xmlns:xlink="http://www.w3.org/1999/xlink">
    <g id="Page-1" stroke="none" stroke-width="1" fill="none" fill-rule="evenodd">
        <g id="Главная_Обмен" transform="translate(-477.000000, -369.000000)">
            <g id="Group-2" transform="translate(120.000000, 345.000000)">
                <g id="Group" transform="translate(352.000000, 22.000000)">
                    <rect id="Rectangle" transform="translate(8.000000, 8.000000) scale(-1, 1) translate(-8.000000, -8.000000) " x="0" y="0" width="16" height="16"></rect>
                    <path d="M7.40155216,7.60236748 L11.8102517,3.1204282 C11.9256208,3.00533227 11.9890874,2.85144609 11.9890874,2.68736154 C11.9890874,2.57791113 11.8919472,2.40846325 11.6976667,2.17901789 C11.5824797,2.06355772 11.4285024,2 11.2644179,2 C11.1003333,2 10.9465382,2.06355772 10.8312602,2.17901789 L5.84252521,7.16766179 C5.72679188,7.28330407 5.66341627,7.43782764 5.6638573,7.60209431 C5.66341627,7.76708943 5.72670082,7.92143089 5.84252521,8.03716423 L10.8266163,13.0209821 C10.9418943,13.1364423 11.0956894,13.2 11.2598651,13.2 C11.4239496,13.2 11.537287,13.1364423 11.6526561,13.0209821 L11.8102517,12.8552423 C12.0923511,12.5731429 11.9453108,12.1408837 11.6976667,11.940685 L7.40155216,7.60236748 Z" id="Path" fill="#17171A" transform="translate(8.826472, 7.600000) scale(-1, 1) translate(-8.826472, -7.600000) "></path>
                </g>
            </g>
        </g>
    </g>
</svg>