
<svg width="6px" height="10px" viewBox="0 0 6 10" version="1.1" xmlns="http://www.w3.org/2000/svg" xmlns:xlink="http://www.w3.org/1999/xlink">
    <g id="Page-1" stroke="none" stroke-width="1" fill="none" fill-rule="evenodd">
        <g id="Вклад_Открытые-2" transform="translate(-561.000000, -124.000000)">
            <g id="Group-6" transform="translate(556.000000, 120.000000)">
                <g id="Icon-arrow-back" transform="translate(0.000000, 1.000000)">
                    <rect id="Rectangle" transform="translate(8.000000, 8.000000) rotate(-270.000000) translate(-8.000000, -8.000000) " x="-1.77635684e-15" y="1.77635684e-15" width="16" height="16"></rect>
                    <path d="M4.40121759,5.45179556 L7.74680006,8.48233531 L10.9519702,5.46485876 C11.1241546,5.30272417 11.3818087,5.28600566 11.5715712,5.41239867 L11.6482942,5.47532231 L12.1245403,5.95156845 C12.128082,5.95511011 12.1315702,5.95870479 12.1350039,5.96235126 C12.3243108,6.16339227 12.3147985,6.47983182 12.1137575,6.66913878 L12.1137575,6.66913878 L8.12291401,10.4270509 C8.09660012,10.451829 8.06829007,10.4732108 8.03853124,10.4912047 L7.76967516,10.7596725 L3.25409611,6.66858275 C3.0494522,6.48317649 3.033857,6.16697836 3.21926326,5.96233444 C3.22477821,5.95624726 3.23044233,5.9502969 3.23625045,5.94448878 L3.71195647,5.46878275 C3.90044853,5.28029069 4.20366904,5.27281767 4.40121759,5.45179556 Z" id="Combined-Shape" fill="#A8A9BC" transform="translate(7.680394, 8.041004) rotate(-270.000000) translate(-7.680394, -8.041004) "></path>
                </g>
            </g>
        </g>
    </g>
</svg>