<svg width="18px" height="18px" viewBox="0 0 18 18" version="1.1" xmlns="http://www.w3.org/2000/svg" xmlns:xlink="http://www.w3.org/1999/xlink">
    <g id="Page-1" stroke="none" stroke-width="1" fill="none" fill-rule="evenodd">
        <g id="Главная_Обмен" transform="translate(-139.000000, -502.000000)" fill="#F3BA2F">
            <g id="Group-2-Copy-3" transform="translate(120.000000, 481.000000)">
                <g id="Binance-Coin-(BNB)" transform="translate(12.000000, 14.000000)">
                    <path d="M12.6550154,14.6247385 L16.0016,11.2796062 L19.3496615,14.6274462 L21.2958769,12.68 L16.0016,7.38461538 L10.7074585,12.6786462 L12.6550154,14.6247385 Z M7.38461538,16.0002462 L9.33145846,14.0535385 L11.2783015,16.0002462 L9.33145846,17.9470769 L7.38461538,16.0002462 Z M16.0016,20.7217231 L12.6550154,17.3752615 L10.7047262,19.32 L10.7074585,19.3227077 L16.0016,24.6153846 L21.2958769,19.32 L21.2972308,19.3186462 L19.3496615,17.3739077 L16.0016,20.7217231 Z M20.7217231,16.0007385 L22.6685538,14.0540308 L24.6153846,16.0007385 L22.6685538,17.9475692 L20.7217231,16.0007385 Z M16.0016,14.0232615 L17.9763692,15.9992615 L17.9778462,15.9992615 L17.9763692,16.0007385 L16.0016,17.9767385 L14.0268308,16.0034462 L14.0241231,15.9992615 L14.0268308,15.9965538 L14.3725538,15.6509538 L14.5412923,15.4835692 L16.0016,14.0232615 Z" id="Shape"></path>
                </g>
            </g>
        </g>
    </g>
</svg>