<svg width="12px" height="16px" viewBox="0 0 12 16" version="1.1" xmlns="http://www.w3.org/2000/svg" xmlns:xlink="http://www.w3.org/1999/xlink">
    <g id="Page-1" stroke="none" stroke-width="1" fill="none" fill-rule="evenodd">
        <g id="Главная_Обмен" transform="translate(-142.000000, -367.000000)" fill="#F7931A">
            <g id="Group-2" transform="translate(120.000000, 345.000000)">
                <g id="btc" transform="translate(12.000000, 14.000000)">
                    <path d="M21.9687534,14.4318523 C22.2179335,12.7507066 20.9472855,11.8470138 19.2097092,11.2441364 L19.7733513,8.96684656 L18.3967448,8.62139153 L17.8478942,10.8386558 C17.4864977,10.7478582 17.1150031,10.6621749 16.7457842,10.5772939 L17.2984748,8.34540285 L15.9230061,7.99994782 L15.3589374,10.2764498 C15.0595515,10.2077427 14.7655701,10.1398379 14.4801223,10.0683802 L14.4816868,10.0612746 L12.5838216,9.58393519 L12.2177317,11.0644895 C12.2177317,11.0644895 13.2387729,11.3001937 13.2172967,11.3148061 C13.7746808,11.4549565 13.8758036,11.8264847 13.858452,12.1210111 L13.2164434,14.7153621 C13.2548444,14.7252469 13.3046235,14.7394296 13.3595228,14.7614915 L13.2144522,14.7252469 L12.314161,18.3594442 C12.2460347,18.5300658 12.0731162,18.7859266 11.683502,18.6887969 C11.6972126,18.7088531 10.6831973,18.4372339 10.6831973,18.4372339 L10,20.0244016 L11.7912951,20.474092 C11.9935122,20.5250922 12.1932688,20.5776683 12.3908208,20.6295281 C12.5188243,20.663194 12.6458322,20.6965734 12.7719868,20.7290932 L12.2025135,23.032843 L13.5771288,23.378384 L14.141482,21.099418 C14.5166744,21.2021348 14.8811999,21.2968291 15.237903,21.3860795 L14.6758254,23.654301 L16.0520052,23.999842 L16.6214785,21.7008198 C18.9682093,22.1480747 20.7332352,21.9677115 21.4752288,19.8301422 C22.0737163,18.1087407 21.445788,17.1158118 20.2111232,16.4678508 C21.1102766,16.2582627 21.7875574,15.6624481 21.9683267,14.4318523 L21.9687534,14.4318523 Z M18.823992,18.8731714 C18.4332969,20.4530329 15.977621,19.7993415 14.8550303,19.500503 C14.7544765,19.4737136 14.6647318,19.4497893 14.5879297,19.4305926 L15.3437192,16.3790302 C15.4374462,16.4026679 15.5519382,16.4285978 15.6816484,16.4578227 L15.6817907,16.4578227 C16.8430668,16.7204166 19.2230785,17.2583546 18.8244187,18.8731714 L18.823992,18.8731714 Z M15.9151837,15.0418496 C16.8518848,15.2935559 18.8935406,15.8422383 19.2492481,14.4069252 C19.6129202,12.9386625 17.6274438,12.4961351 16.6578884,12.2800288 C16.5489432,12.255732 16.4526562,12.2343004 16.3741473,12.214588 L15.6890442,14.9822538 C15.7538993,14.9984421 15.8299903,15.0189281 15.9151837,15.0418496 Z" id="Shape"></path>
                </g>
            </g>
        </g>
    </g>
</svg>