
<svg width="8px" height="7px" viewBox="0 0 8 7" version="1.1" xmlns="http://www.w3.org/2000/svg" xmlns:xlink="http://www.w3.org/1999/xlink">
    <g id="Page-1" stroke="none" stroke-width="1" fill="none" fill-rule="evenodd">
        <g id="Главная_2-(История-транзакций)2" transform="translate(-1136.000000, -420.000000)" fill="#18B8CF">
            <g id="Group-11" transform="translate(556.000000, 345.000000)">
                <g id="rate-rose" transform="translate(576.000000, 68.000000)">
                    <g id="Group-15" transform="translate(0.000000, 2.000000)">
                        <g id="Group-16" transform="translate(8.000000, 8.417157) rotate(-180.000000) translate(-8.000000, -8.417157) translate(2.248171, 2.665328)">
                            <path d="M6.03467171,1.451829 L9.41040764,4.82756493 C9.4885125,4.90566979 9.4885125,5.03230278 9.41040764,5.11040764 C9.37290036,5.14791492 9.32202958,5.16898628 9.26898628,5.16898628 L6.25167171,5.16867171 L6.251829,9.86898628 C6.251829,10.0346717 6.11751442,10.1689863 5.951829,10.1689863 L5.551829,10.1689863 C5.38614357,10.1689863 5.251829,10.0346717 5.251829,9.86898628 L5.25167171,5.16867171 L2.23467171,5.16898628 C2.12421476,5.16898628 2.03467171,5.07944323 2.03467171,4.96898628 C2.03467171,4.91594299 2.05574308,4.8650722 2.09325035,4.82756493 L5.46898628,1.451829 C5.625196,1.29561928 5.87846199,1.29561928 6.03467171,1.451829 Z" id="Combined-Shape" transform="translate(5.751829, 5.751829) rotate(-315.000000) translate(-5.751829, -5.751829) "></path>
                        </g>
                    </g>
                </g>
            </g>
        </g>
    </g>
</svg>
