<?xml version="1.0" encoding="UTF-8"?>
<svg width="32px" height="32px" viewBox="0 0 32 32" version="1.1" xmlns="http://www.w3.org/2000/svg" xmlns:xlink="http://www.w3.org/1999/xlink">
    <title>Icon_Вывод@3x</title>
    <g id="Page-1" stroke="none" stroke-width="1" fill="none" fill-rule="evenodd">
        <g id="Главная_2" transform="translate(-1213.000000, -171.000000)">
            <g id="Вывод" transform="translate(1138.000000, 157.000000)">
                <g id="Icon_Вывод" transform="translate(75.000000, 14.000000)">
                    <rect id="Rectangle" x="0" y="0" width="32" height="32"></rect>
                    <path d="M16.2247024,30.6508966 C20.6429804,30.6508966 24.2247024,27.0691746 24.2247024,22.6508966 C24.2247024,18.2326186 20.6429804,14.6508966 16.2247024,14.6508966 C11.8064244,14.6508966 8.22470238,18.2326186 8.22470238,22.6508966 C8.22470238,27.0691746 11.8064244,30.6508966 16.2247024,30.6508966 Z" id="Oval" fill="#DCDDE7"></path>
                    <g id="up-arrow-(1)" transform="translate(5.000000, 0.557319)" fill="#5C14F1">
                        <path d="M20.8739018,0.0342568058 C20.9025398,0.0425041426 20.9306318,0.0521720116 20.9581075,0.0631852233 C20.9727392,0.0693414304 20.987325,0.0755450981 21.0016569,0.0820888241 C21.0190385,0.0900536941 21.0365397,0.0988705145 21.0537325,0.10824044 C21.069743,0.116542031 21.0848708,0.125258764 21.0996679,0.134351349 C21.1130493,0.143361529 21.1269196,0.152516293 21.1405421,0.162041634 C21.4137109,0.349746593 21.5625,0.667648807 21.5625,0.921201344 L21.5625,0.921201344 L21.5625,7.51276242 C21.5625,7.89878567 21.1388079,8.45120715 20.6162306,8.45120715 C20.0936533,8.45120715 19.6699612,7.89878567 19.6699612,7.51276242 L19.6699612,7.51276242 L19.669,1.989 L1.892,1.989 L1.89253882,7.51276242 C1.89253882,7.87121258 1.52721245,8.37313877 1.05661834,8.44301368 L0.946269416,8.45120715 C0.423692138,8.45120715 -3.04201109e-14,7.89878567 -3.04201109e-14,7.51276242 L-3.04201109e-14,7.51276242 L-3.08642001e-14,0.921201344 C-3.08642001e-14,0.535178096 0.344875252,1.99133284e-12 0.946269405,1.99129602e-12 L0.832186611,0.00694790622 C0.868492889,0.00235986292 0.905438514,0 0.94290012,0 L0.94290012,0 L20.630568,0 C20.7081345,0 20.7834889,0.0101172558 20.8555361,0.0291828276 L20.8551136,0.0300118543 Z" id="Arrow_to_Top_1_"></path>
                        <path d="M17.7362914,13.0150988 C17.5543317,13.2093257 17.3157571,13.3065635 17.0774155,13.3065635 C16.8390739,13.3065635 16.6004993,13.2093257 16.4185396,13.0150988 L11.893469,7.91943503 L11.893469,23.5308229 C11.893469,24.0801791 11.4761965,24.5255829 10.961537,24.5255829 C10.4468776,24.5255829 10.0296051,24.0801791 10.0296051,23.5308229 L10.0296051,7.91943503 L5.05892723,13.0150988 C4.69477481,13.4038013 4.10509484,13.4038013 3.7411754,13.0150988 C3.37725596,12.6263964 3.37702297,11.996962 3.7411754,11.6085082 L9.59957115,5.63425372 C10.3552419,4.76492638 11.7040287,4.76492638 12.3361433,5.63425372 L17.7362914,11.6085082 C18.1004438,11.996962 18.1004438,12.6266451 17.7362914,13.0150988 Z" id="Arrow_to_Top_1_" transform="translate(10.738777, 14.753921) scale(1, -1) translate(-10.738777, -14.753921) "></path>
                    </g>
                </g>
            </g>
        </g>
    </g>
</svg>