
<svg width="16px" height="16px" viewBox="0 0 16 16" version="1.1" xmlns="http://www.w3.org/2000/svg" xmlns:xlink="http://www.w3.org/1999/xlink">
    <g id="Page-1" stroke="none" stroke-width="1" fill="none" fill-rule="evenodd">
        <g id="Вклад_3" transform="translate(-861.000000, -333.000000)" fill="#A8A9BC">
            <g id="Group-6" transform="translate(528.000000, 305.000000)">
                <g id="Icon_Close" transform="translate(329.000000, 24.000000)">
                    <g transform="translate(4.785676, 4.649711)" id="Combined-Shape">
                        <path d="M0.219669914,0.219669914 C0.512563133,-0.0732233047 0.987436867,-0.0732233047 1.28033009,0.219669914 L1.28033009,0.219669914 L7.29,6.23 L13.3011454,0.219669914 C13.5940386,-0.0732233047 14.0689123,-0.0732233047 14.3618055,0.219669914 C14.6546988,0.512563133 14.6546988,0.987436867 14.3618055,1.28033009 L8.351,7.29 L14.3618055,13.3011454 C14.6280721,13.5674119 14.6522782,13.9840756 14.4344237,14.2776871 L14.3618055,14.3618055 C14.0689123,14.6546988 13.5940386,14.6546988 13.3011454,14.3618055 L13.3011454,14.3618055 L7.29,8.351 L1.28033009,14.3618055 C0.987436867,14.6546988 0.512563133,14.6546988 0.219669914,14.3618055 C-0.0732233047,14.0689123 -0.0732233047,13.5940386 0.219669914,13.3011454 L6.23,7.29 L0.219669914,1.28033009 C-0.0465966484,1.01406352 -0.0708026996,0.597399841 0.147051761,0.303788347 Z"></path>
                    </g>
                </g>
            </g>
        </g>
    </g>
</svg>