
<svg width="16px" height="16px" viewBox="0 0 16 16" version="1.1" xmlns="http://www.w3.org/2000/svg" xmlns:xlink="http://www.w3.org/1999/xlink">
    <g id="Page-1" stroke="none" stroke-width="1" fill="none" fill-rule="evenodd">
        <g id="Вход_7" transform="translate(-876.000000, -461.000000)" fill="#E63C8A">
            <g id="Group-3" transform="translate(482.000000, 282.000000)">
                <g id="Group-8" transform="translate(48.000000, 160.000000)">
                    <g id="Icon_error" transform="translate(344.000000, 17.000000)">
                        <g id="Error" transform="translate(2.000000, 2.000000)">
                            <path d="M8,0 C12.421625,0 16,3.57803125 16,8 C16,12.4216562 12.4219687,16 8,16 C3.57834375,16 0,12.4219687 0,8 C0,3.57834375 3.57803125,0 8,0 Z M7.96122774,1 C4.0922694,1 0.961227737,4.13078241 0.961227737,8 C0.961227737,11.8689583 4.09201014,15 7.96122774,15 C11.8301537,15 14.9612277,11.8692176 14.9612277,8 C14.9612277,4.13104167 11.8304453,1 7.96122774,1 Z M8,10.245 C8.46599026,10.245 8.84375,10.6227597 8.84375,11.08875 C8.84375,11.5547403 8.46599026,11.9325 8,11.9325 C7.53400974,11.9325 7.15625,11.5547403 7.15625,11.08875 C7.15625,10.6227597 7.53400974,10.245 8,10.245 Z M8,3.6978125 C8.3451875,3.6978125 8.625,3.977625 8.625,4.3228125 L8.625,4.3228125 L8.625,8.3475625 C8.625,8.69275 8.3451875,8.97259375 8,8.97259375 C7.6548125,8.97259375 7.375,8.69278125 7.375,8.34759375 L7.375,8.34759375 L7.375,4.3228125 C7.375,3.977625 7.6548125,3.6978125 8,3.6978125 Z" id="Combined-Shape"></path>
                        </g>
                    </g>
                </g>
            </g>
        </g>
    </g>
</svg>