<?xml version="1.0" encoding="UTF-8"?>
<svg width="35px" height="32px" viewBox="0 0 35 32" version="1.1" xmlns="http://www.w3.org/2000/svg" xmlns:xlink="http://www.w3.org/1999/xlink">
    <title>Icon_Обмен</title>
    <g id="Page-1" stroke="none" stroke-width="1" fill="none" fill-rule="evenodd">
        <g id="Главная_2" transform="translate(-1017.000000, -171.000000)">
            <g id="Обмен" transform="translate(944.000000, 157.000000)">
                <g id="Icon_Обмен" transform="translate(90.624652, 30.000000) rotate(90.000000) translate(-90.624652, -30.000000) translate(74.624652, 12.624652)">
                    <rect id="Rectangle" x="0" y="2" width="32" height="32"></rect>
                    <circle id="Oval" fill="#DCDDE7" cx="9" cy="26.7506951" r="8"></circle>
                    <circle id="Oval-Copy-3" fill="#DCDDE7" cx="22.4469854" cy="8" r="8"></circle>
                    <path d="M10.2760826,11.9147809 L10.2760826,26.3560675 L13.0092445,23.4690381 C13.7698946,22.6663115 14.9601083,23.8516826 14.1986093,24.6552798 L10.0820998,29.003672 C9.72130037,29.414177 9.16694263,29.414177 8.80614319,29.003672 L4.68963374,24.6552798 C3.92813467,23.8516826 5.11834838,22.6663115 5.8789985,23.4690381 L8.61216043,26.3560675 L8.61216043,11.9147809 C8.61216043,10.7916603 10.2760826,10.7916603 10.2760826,11.9147809 Z M23.3102809,6.26159974 L27.4267904,10.9258196 C28.1882894,11.7882497 26.9980757,13.0597154 26.2374256,12.1986861 L23.5042637,9.10150215 L23.5042637,24.4840727 C23.5042637,25.6892335 21.8403415,25.6892335 21.8403415,24.4840727 L21.8403415,9.10150215 L19.1071796,12.1986861 C18.3465295,13.0597154 17.1563158,11.7882497 17.9178149,10.9258196 L22.0343243,6.26206668 C22.4065844,5.80773832 22.9881082,5.83902301 23.3102809,6.26159974 Z" id="Shape" fill="#5C14F1"></path>
                </g>
            </g>
        </g>
    </g>
</svg>