<?xml version="1.0" encoding="UTF-8"?>
<svg width="24px" height="18px" viewBox="0 0 24 18" version="1.1" xmlns="http://www.w3.org/2000/svg" xmlns:xlink="http://www.w3.org/1999/xlink">
    <title>GB@3x</title>
    <defs>
        <path d="M21.7142857,0 L2.28571429,0 C1.02334857,0 0,1.02334857 0,2.28571429 L0,14.8571429 C0,16.1195429 1.02334857,17.1428571 2.28571429,17.1428571 L21.7142857,17.1428571 C22.9766857,17.1428571 24,16.1195429 24,14.8571429 L24,2.28571429 C24,1.02334857 22.9766857,0 21.7142857,0 Z" id="path-1"></path>
    </defs>
    <g id="Page-1" stroke="none" stroke-width="1" fill="none" fill-rule="evenodd">
        <g id="country_drop-down" transform="translate(-546.000000, -462.000000)">
            <g id="Group-3" transform="translate(482.000000, 205.000000)">
                <g id="Group-8" transform="translate(48.000000, 142.000000)">
                    <g id="Group-12" transform="translate(4.000000, 104.000000)">
                        <g id="GB" transform="translate(12.000000, 11.000000)">
                            <mask id="mask-2" fill="white">
                                <use xlink:href="#path-1"></use>
                            </mask>
                            <g id="Path"></g>
                            <g id="Group" mask="url(#mask-2)">
                                <path d="M21.7142857,0 L2.28571429,0 C1.02334857,0 0,1.02334857 0,2.28571429 L0,14.8571429 C0,16.1195429 1.02334857,17.1428571 2.28571429,17.1428571 L21.7142857,17.1428571 C22.9766857,17.1428571 24,16.1195429 24,14.8571429 L24,2.28571429 C24,1.02334857 22.9766857,0 21.7142857,0 Z" id="Path" fill="#22438B" fill-rule="nonzero"></path>
                                <polygon id="Path" fill="#FFFFFF" points="3.42857143 1.14285714 1.11314171 1.17257143 1.142856 3.42857143 20.5508571 16.032 22.8788571 15.9897143 22.8354286 13.7474286"></polygon>
                                <polygon id="Path" fill="#C7152A" points="2.28571429 1.14285714 1.14285714 2.28571429 21.7142857 16 22.8571429 14.8571429"></polygon>
                                <path d="M20.5714286,1.14285714 L22.8571429,1.14285714 L22.8571429,3.42857143 C22.8571429,3.42857143 9.42856,11.8811429 3.44913143,16.032 C3.37713143,16.0822857 1.16570286,16.0354286 1.16570286,16.0354286 L0.98856,13.8628571 L20.5714286,1.14285714 Z" id="Path" fill="#FFFFFF"></path>
                                <polygon id="Path" fill="#C7152A" points="21.7634286 1.11085714 22.8571429 2.28571429 2.28571429 16 1.14285714 14.8571429"></polygon>
                                <polygon id="Path" fill="#FFFFFF" points="9.14285714 1.14285714 14.8571429 1.14285714 14.8571429 5.71428571 22.8571429 5.71428571 22.8571429 11.4285714 14.8571429 11.4285714 14.8571429 16 9.14285714 16 9.14285714 11.4285714 1.14285714 11.4285714 1.14285714 5.71428571 9.14285714 5.71428571"></polygon>
                                <polygon id="Path" fill="#C7152A" points="10.2857143 1.14285714 13.7142857 1.14285714 13.7142857 6.85714286 22.8571429 6.85714286 22.8571429 10.2857143 13.7142857 10.2857143 13.7142857 16 10.2857143 16 10.2857143 10.2857143 1.14285714 10.2857143 1.14285714 6.85714286 10.2857143 6.85714286"></polygon>
                                <path d="M21.7142857,0.571428571 L2.28571429,0.571428571 C1.33893714,0.571428571 0.571428571,1.33893714 0.571428571,2.28571429 L0.571428571,14.8571429 C0.571428571,15.8038857 1.33893714,16.5714286 2.28571429,16.5714286 L21.7142857,16.5714286 C22.6610286,16.5714286 23.4285714,15.8038857 23.4285714,14.8571429 L23.4285714,2.28571429 C23.4285714,1.33893714 22.6610286,0.571428571 21.7142857,0.571428571 Z" id="Path" stroke-opacity="0.1" stroke="#000000" stroke-width="1.14285714"></path>
                            </g>
                        </g>
                    </g>
                </g>
            </g>
        </g>
    </g>
</svg>