<?xml version="1.0" encoding="UTF-8"?>
<svg width="24px" height="18px" viewBox="0 0 24 18" version="1.1" xmlns="http://www.w3.org/2000/svg" xmlns:xlink="http://www.w3.org/1999/xlink">
    <title>Group</title>
    <g id="Page-1" stroke="none" stroke-width="1" fill="none" fill-rule="evenodd">
        <g id="country_drop-down" transform="translate(-546.000000, -419.000000)">
            <g id="Group-3" transform="translate(482.000000, 205.000000)">
                <g id="Group-8" transform="translate(48.000000, 142.000000)">
                    <g id="Group-11" transform="translate(16.000000, 71.000000)">
                        <g id="Group" transform="translate(0.000000, 1.000000)">
                            <path d="M21.7142857,0 L2.28571429,0 C1.02334857,0 0,1.02334857 0,2.28571429 L0,14.8571429 C0,16.1195429 1.02334857,17.1428571 2.28571429,17.1428571 L21.7142857,17.1428571 C22.9766857,17.1428571 24,16.1195429 24,14.8571429 L24,2.28571429 C24,1.02334857 22.9766857,0 21.7142857,0 Z" id="Path" fill="#0034A9" fill-rule="nonzero"></path>
                            <polygon id="Path" fill="#D7280F" points="0 11.4285714 24 11.4285714 24 17.1428571 0 17.1428571"></polygon>
                            <polygon id="Path" fill="#FFFFFF" points="0 0 24 0 24 5.71428571 0 5.71428571"></polygon>
                            <path d="M21.7142857,0.571428571 L2.28571429,0.571428571 C1.33893714,0.571428571 0.571428571,1.33893714 0.571428571,2.28571429 L0.571428571,14.8571429 C0.571428571,15.8038857 1.33893714,16.5714286 2.28571429,16.5714286 L21.7142857,16.5714286 C22.6610286,16.5714286 23.4285714,15.8038857 23.4285714,14.8571429 L23.4285714,2.28571429 C23.4285714,1.33893714 22.6610286,0.571428571 21.7142857,0.571428571 Z" id="Path" stroke-opacity="0.1" stroke="#000000" stroke-width="1.14285714"></path>
                        </g>
                    </g>
                </g>
            </g>
        </g>
    </g>
</svg>