<?xml version="1.0" encoding="UTF-8"?>
<svg width="24px" height="24px" viewBox="0 0 24 24" version="1.1" xmlns="http://www.w3.org/2000/svg" xmlns:xlink="http://www.w3.org/1999/xlink">
    <title>Group 17</title>
    <g id="Page-1" stroke="none" stroke-width="1" fill="none" fill-rule="evenodd">
        <g id="Настройки" transform="translate(-1137.000000, -119.000000)">
            <g id="Group-18" transform="translate(1117.000000, 60.000000)">
                <g id="Group-17" transform="translate(20.000000, 59.000000)">
                    <rect id="Rectangle" x="0" y="0" width="24" height="24"></rect>
                    <g id="logout" transform="translate(6.000000, 4.000000)">
                        <path d="M5.64897782,8 L13,8 M13,8 L10.738147,10.2857143 M13,8 L10.738147,5.71428571" id="Combined-Shape" stroke="#17171A" stroke-width="1.13005655" stroke-linecap="round" stroke-linejoin="round"></path>
                        <path d="M10.1783384,13.7083204 L10.1783384,14.8571429 L10.1783384,14.8571429 L1.13092649,14.8571429 L1.13092649,1.14285714 L10.1783384,1.14285714 L10.1783384,2.29167961 C10.1783384,2.60397634 10.4315049,2.85714286 10.7438017,2.85714286 C11.0560984,2.85714286 11.3092649,2.60397634 11.3092649,2.29167961 L11.3092649,0.571428571 L11.3092649,0.571428571 C11.3092649,0.255837286 11.0560984,0 10.7438017,0 L0.565463245,0 C0.253166518,0 0,0.255837286 0,0.571428571 L0,15.4285714 C0,15.7441627 0.253166518,16 0.565463245,16 L10.7438017,16 C11.0560984,16 11.3092649,15.7441627 11.3092649,15.4285714 L11.3092649,13.7083204 C11.3092649,13.3960237 11.0560984,13.1428571 10.7438017,13.1428571 C10.4315049,13.1428571 10.1783384,13.3960237 10.1783384,13.7083204 Z" id="Path" fill="#17171A"></path>
                    </g>
                </g>
            </g>
        </g>
    </g>
</svg>