<svg width="12px" height="17px" viewBox="0 0 12 17" version="1.1" xmlns="http://www.w3.org/2000/svg" xmlns:xlink="http://www.w3.org/1999/xlink">
    <g id="Page-1" stroke="none" stroke-width="1" fill="none" fill-rule="evenodd">
        <path d="M6.22248107,9.8320656 L5.0583524,14.128202 L11.2850868,14.128202 C11.3683899,14.125004 11.4494373,14.1581812 11.510374,14.2204245 C11.5713107,14.2826679 11.6071368,14.3688704 11.6099599,14.4600415 L11.6099599,14.5726299 L11.0685047,16.6169981 C11.0193339,16.8161209 10.8507257,16.9514396 10.6624133,16.9429119 L1.13280251,16.9429119 L2.73009523,10.9875781 L0.9432932,11.5801487 L1.34938457,10.2172364 L3.1361866,9.624666 L5.38322547,1.26942152 C5.43412427,1.07160252 5.60162147,0.937175547 5.78931693,0.943507733 L8.1987924,0.943507733 C8.28209547,0.940309773 8.36314293,0.973487013 8.4240796,1.03573033 C8.48501627,1.09797367 8.5208424,1.18417625 8.52366547,1.27534723 L8.52366547,1.38793563 L6.6285724,8.43952493 L8.4153744,7.8469544 L8.03635587,9.2691236 L6.22248107,9.8320656 Z" id="Shape" fill="#345D9D" fill-rule="nonzero"></path>
    </g>
</svg>