<?xml version="1.0" encoding="UTF-8"?>
<svg width="32px" height="32px" viewBox="0 0 32 32" version="1.1" xmlns="http://www.w3.org/2000/svg" xmlns:xlink="http://www.w3.org/1999/xlink">
    <title>Icon_Пополнить@3x</title>
    <g id="Page-1" stroke="none" stroke-width="1" fill="none" fill-rule="evenodd">
        <g id="Главная_2" transform="translate(-631.000000, -171.000000)">
            <g id="Пополнить" transform="translate(556.000000, 157.000000)">
                <g id="Icon_Пополнить" transform="translate(91.000000, 30.000000) scale(1, -1) translate(-91.000000, -30.000000) translate(75.000000, 14.000000)">
                    <rect id="Rectangle" x="0" y="0" width="32" height="32"></rect>
                    <path d="M16.2247024,30.093578 C20.6429804,30.093578 24.2247024,26.511856 24.2247024,22.093578 C24.2247024,17.6753 20.6429804,14.093578 16.2247024,14.093578 C11.8064244,14.093578 8.22470238,17.6753 8.22470238,22.093578 C8.22470238,26.511856 11.8064244,30.093578 16.2247024,30.093578 Z" id="Oval" fill="#DCDDE7"></path>
                    <g id="up-arrow-(1)" transform="translate(5.000000, 0.000000)" fill="#5C14F1">
                        <path d="M10.961537,4.98225821 C11.4761965,4.98225821 11.893469,5.42766199 11.893469,5.97701817 L11.893469,5.97701817 L11.893469,21.5884061 L16.4185396,16.4927423 C16.6004993,16.2985154 16.8390739,16.2012776 17.0774155,16.2012776 C17.3157571,16.2012776 17.5543317,16.2985154 17.7362914,16.4927423 C18.1004438,16.881196 18.1004438,17.5108791 17.7362914,17.8993329 L17.7362914,17.8993329 L12.3361433,23.8735874 C11.7040287,24.7429147 10.3552419,24.7429147 9.59957115,23.8735874 L9.59957115,23.8735874 L3.7411754,17.8993329 C3.37702297,17.5108791 3.37725596,16.8814447 3.7411754,16.4927423 C4.10509484,16.1040398 4.69477481,16.1040398 5.05892723,16.4927423 L5.05892723,16.4927423 L10.0296051,21.5884061 L10.0296051,5.97701817 C10.0296051,5.42766199 10.4468776,4.98225821 10.961537,4.98225821 Z M20.630568,0 C20.7081345,0 20.7834889,0.0101172558 20.8555361,0.0291828276 L20.8551136,0.0300118543 L20.8739018,0.0342568058 C20.9025398,0.0425041426 20.9306318,0.0521720116 20.9581075,0.0631852233 C20.9727392,0.0693414304 20.987325,0.0755450981 21.0016569,0.0820888241 C21.0190385,0.0900536941 21.0365397,0.0988705145 21.0537325,0.10824044 C21.069743,0.116542031 21.0848708,0.125258764 21.0996679,0.134351349 C21.1130493,0.143361529 21.1269196,0.152516293 21.1405421,0.162041634 C21.3795648,0.326283473 21.5233593,0.590207586 21.5555732,0.823482726 L21.5625,0.921201344 L21.5625,7.51276242 C21.5625,7.89878567 21.1388079,8.45120715 20.6162306,8.45120715 C20.1309803,8.45120715 19.7309931,7.97488454 19.6763279,7.59776664 L19.6699612,7.51276242 L19.669,1.989 L1.892,1.989 L1.89253882,7.51276242 C1.89253882,7.87121258 1.52721245,8.37313877 1.05661834,8.44301368 L0.946269416,8.45120715 C0.461019086,8.45120715 0.0610319643,7.97488455 0.00636671384,7.59776664 L-3.04201109e-14,7.51276242 L-3.08642001e-14,0.921201344 C-3.08642001e-14,0.535178096 0.344875252,1.96202295e-12 0.946269405,1.96198613e-12 L20.630568,0 Z" id="Combined-Shape"></path>
                    </g>
                </g>
            </g>
        </g>
    </g>
</svg>