<?xml version="1.0" encoding="UTF-8"?>
<svg width="24px" height="24px" viewBox="0 0 24 24" version="1.1" xmlns="http://www.w3.org/2000/svg" xmlns:xlink="http://www.w3.org/1999/xlink">
    <title>Group 14</title>
    <g id="Page-1" stroke="none" stroke-width="1" fill="none" fill-rule="evenodd">
        <g id="Настройки" transform="translate(-1137.000000, -78.000000)">
            <g id="Group-18" transform="translate(1117.000000, 60.000000)">
                <g id="Group-14" transform="translate(20.000000, 18.000000)">
                    <rect id="Rectangle" x="0" y="0" width="24" height="24"></rect>
                    <g id="settings" transform="translate(2.000000, 2.000000)" fill="#17171A" fill-rule="nonzero">
                        <path d="M10,6.09375 C7.8426377,6.09375 6.09375,7.8426377 6.09375,10 C6.09375,12.1573623 7.8426377,13.90625 10,13.90625 C12.1573623,13.90625 13.90625,12.1573623 13.90625,10 C13.90625,7.8426377 12.1573623,6.09375 10,6.09375 L10,6.09375 Z M10,12.96875 C8.36040465,12.96875 7.03125,11.6395954 7.03125,10 C7.03125,8.36040465 8.36040465,7.03125 10,7.03125 C11.6395954,7.03125 12.96875,8.36040465 12.96875,10 C12.96875,10.7873615 12.6559719,11.5424746 12.0992233,12.0992233 C11.5424746,12.6559719 10.7873615,12.96875 10,12.96875 Z" id="Shape"></path>
                        <path d="M18.90625,7.5 L17.5109375,7.5 C17.4443383,7.49950536 17.385373,7.45684963 17.3640625,7.39375 C17.2732557,7.13584106 17.1689449,6.8828874 17.0515625,6.6359375 C17.0215206,6.57619429 17.0328274,6.50395638 17.0796875,6.45625 L18.065625,5.46875 C18.2707671,5.26362888 18.3860164,4.98541237 18.3860164,4.6953125 C18.3860164,4.40521263 18.2707671,4.12699612 18.065625,3.921875 L16.0765625,1.934375 C15.8714414,1.72923295 15.5932249,1.61398358 15.303125,1.61398358 C15.0130251,1.61398358 14.7348086,1.72923295 14.5296875,1.934375 L13.54375,2.9203125 C13.4960436,2.96717257 13.4238057,2.97847938 13.3640625,2.9484375 C13.117129,2.83101803 12.8641734,2.72670643 12.60625,2.6359375 C12.5431504,2.614627 12.5004946,2.55566172 12.5,2.4890625 L12.5,1.09375 C12.5,0.489688555 12.0103114,0 11.40625,0 L8.59375,0 C7.98968855,0 7.5,0.489688555 7.5,1.09375 L7.5,2.4890625 C7.49950536,2.55566172 7.45684963,2.614627 7.39375,2.6359375 C7.13584106,2.72674427 6.8828874,2.83105506 6.6359375,2.9484375 C6.57619429,2.97847938 6.50395638,2.96717257 6.45625,2.9203125 L5.46875,1.934375 C5.26362888,1.72923295 4.98541237,1.61398358 4.6953125,1.61398358 C4.40521263,1.61398358 4.12699612,1.72923295 3.921875,1.934375 L1.934375,3.9234375 C1.72923295,4.12855862 1.61398358,4.40677513 1.61398358,4.696875 C1.61398358,4.98697487 1.72923295,5.26519138 1.934375,5.4703125 L2.9203125,6.45625 C2.96717257,6.50395638 2.97847938,6.57619429 2.9484375,6.6359375 C2.83101803,6.88287098 2.72670643,7.13582661 2.6359375,7.39375 C2.614627,7.45684963 2.55566172,7.49950536 2.4890625,7.5 L1.09375,7.5 C0.489688555,7.5 0,7.98968855 0,8.59375 L0,11.40625 C0,12.0103114 0.489688555,12.5 1.09375,12.5 L2.4890625,12.5 C2.55566172,12.5004946 2.614627,12.5431504 2.6359375,12.60625 C2.72674427,12.8641589 2.83105506,13.1171126 2.9484375,13.3640625 C2.97847938,13.4238057 2.96717257,13.4960436 2.9203125,13.54375 L1.934375,14.53125 C1.72923295,14.7363711 1.61398358,15.0145876 1.61398358,15.3046875 C1.61398358,15.5947874 1.72923295,15.8730039 1.934375,16.078125 L3.9234375,18.0671875 C4.12855862,18.2723296 4.40677513,18.3875789 4.696875,18.3875789 C4.98697487,18.3875789 5.26519138,18.2723296 5.4703125,18.0671875 L6.45625,17.08125 C6.50395638,17.0343899 6.57619429,17.0230831 6.6359375,17.053125 C6.88287098,17.1705445 7.13582661,17.2748561 7.39375,17.365625 C7.45684963,17.3869355 7.49950536,17.4459008 7.5,17.5125 L7.5,18.90625 C7.5,19.5103114 7.98968855,20 8.59375,20 L11.40625,20 C12.0103114,20 12.5,19.5103114 12.5,18.90625 L12.5,17.5109375 C12.5004946,17.4443383 12.5431504,17.385373 12.60625,17.3640625 C12.8641589,17.2732557 13.1171126,17.1689449 13.3640625,17.0515625 C13.4238057,17.0215206 13.4960436,17.0328274 13.54375,17.0796875 L14.53125,18.065625 C14.7363711,18.2707671 15.0145876,18.3860164 15.3046875,18.3860164 C15.5947874,18.3860164 15.8730039,18.2707671 16.078125,18.065625 L18.0671875,16.0765625 C18.2723296,15.8714414 18.3875789,15.5932249 18.3875789,15.303125 C18.3875789,15.0130251 18.2723296,14.7348086 18.0671875,14.5296875 L17.08125,13.54375 C17.0343899,13.4960436 17.0230831,13.4238057 17.053125,13.3640625 C17.1705445,13.117129 17.2748561,12.8641734 17.365625,12.60625 C17.3869355,12.5431504 17.4459008,12.5004946 17.5125,12.5 L18.90625,12.5 C19.5103114,12.5 20,12.0103114 20,11.40625 L20,8.59375 C20,7.98968855 19.5103114,7.5 18.90625,7.5 Z M19.0625,11.40625 C19.0625,11.4925445 18.9925445,11.5625 18.90625,11.5625 L17.5109375,11.5625 C17.0464576,11.5630221 16.6329657,11.8568519 16.4796875,12.2953125 C16.3997399,12.52185 16.3079468,12.7440311 16.2046875,12.9609375 C16.0017536,13.3800263 16.0864026,13.8816501 16.415625,14.2109375 L17.4015625,15.196875 C17.4621443,15.2578184 17.4621443,15.3562441 17.4015625,15.4171875 L15.4140625,17.403125 C15.3531191,17.4637068 15.2546934,17.4637068 15.19375,17.403125 L14.2078125,16.4171875 C13.8785251,16.0879651 13.3769013,16.0033161 12.9578125,16.20625 C12.7403983,16.3095651 12.5176941,16.4013589 12.290625,16.48125 C11.8527809,16.6350571 11.5596642,17.0484268 11.559375,17.5125 L11.559375,18.90625 C11.559375,18.9925445 11.4894195,19.0625 11.403125,19.0625 L8.59375,19.0625 C8.50745551,19.0625 8.4375,18.9925445 8.4375,18.90625 L8.4375,17.5109375 C8.43697792,17.0464576 8.14314809,16.6329657 7.7046875,16.4796875 C7.47815002,16.3997399 7.25596886,16.3079468 7.0390625,16.2046875 C6.61997369,16.0017536 6.11834993,16.0864026 5.7890625,16.415625 L4.803125,17.4015625 C4.74218165,17.4621443 4.64375585,17.4621443 4.5828125,17.4015625 L2.596875,15.4140625 C2.53629319,15.3531191 2.53629319,15.2546934 2.596875,15.19375 L3.5828125,14.2078125 C3.9120349,13.8785251 3.99668391,13.3769013 3.79375,12.9578125 C3.69043488,12.7403983 3.5986411,12.5176941 3.51875,12.290625 C3.36408006,11.8545539 2.95175087,11.5629828 2.4890625,11.5625 L1.09375,11.5625 C1.00745551,11.5625 0.9375,11.4925445 0.9375,11.40625 L0.9375,8.59375 C0.9375,8.50745551 1.00745551,8.4375 1.09375,8.4375 L2.4890625,8.4375 C2.95354245,8.43697792 3.36703431,8.14314809 3.5203125,7.7046875 C3.60026008,7.47815002 3.69205323,7.25596886 3.7953125,7.0390625 C3.99824641,6.61997369 3.9135974,6.11834993 3.584375,5.7890625 L2.5984375,4.803125 C2.53785569,4.74218165 2.53785569,4.64375585 2.5984375,4.5828125 L4.5859375,2.596875 C4.64688085,2.53629319 4.74530665,2.53629319 4.80625,2.596875 L5.7921875,3.5828125 C6.12147493,3.9120349 6.62309869,3.99668391 7.0421875,3.79375 C7.2596017,3.69043488 7.48230593,3.5986411 7.709375,3.51875 C8.14544605,3.36408006 8.43701723,2.95175087 8.4375,2.4890625 L8.4375,1.09375 C8.4375,1.00745551 8.50745551,0.9375 8.59375,0.9375 L11.40625,0.9375 C11.4925445,0.9375 11.5625,1.00745551 11.5625,1.09375 L11.5625,2.4890625 C11.5630221,2.95354245 11.8568519,3.36703431 12.2953125,3.5203125 C12.52185,3.60026008 12.7440311,3.69205323 12.9609375,3.7953125 C13.3800263,3.99824641 13.8816501,3.9135974 14.2109375,3.584375 L15.196875,2.5984375 C15.2578184,2.53785569 15.3562441,2.53785569 15.4171875,2.5984375 L17.40625,4.5875 C17.4668318,4.64844335 17.4668318,4.74686915 17.40625,4.8078125 L16.4203125,5.79375 C16.0910901,6.12303743 16.0064411,6.62466119 16.209375,7.04375 C16.3126901,7.2611642 16.4044839,7.48386843 16.484375,7.7109375 C16.6381821,8.14878156 17.0515518,8.44189827 17.515625,8.4421875 L18.90625,8.4421875 C18.9925445,8.4421875 19.0625,8.51214301 19.0625,8.5984375 L19.0625,11.40625 Z" id="Shape"></path>
                    </g>
                </g>
            </g>
        </g>
    </g>
</svg>