<?xml version="1.0" encoding="UTF-8"?>
<svg width="32px" height="32px" viewBox="0 0 32 32" version="1.1" xmlns="http://www.w3.org/2000/svg" xmlns:xlink="http://www.w3.org/1999/xlink">
    <title>Icon_перевод@3x</title>
    <g id="Page-1" stroke="none" stroke-width="1" fill="none" fill-rule="evenodd">
        <g id="Главная_2" transform="translate(-825.000000, -171.000000)">
            <g id="Перевод" transform="translate(750.000000, 157.000000)">
                <g id="Icon_перевод" transform="translate(75.000000, 14.000000)">
                    <rect id="Rectangle" x="0" y="0" width="32" height="32"></rect>
                    <circle id="Oval" fill="#DCDDE7" cx="21.7619048" cy="12" r="8"></circle>
                    <path d="M21.6911924,10.7639245 L16.9859581,6.19616187 C16.6570895,5.8769134 16.1264495,5.87937769 15.8007238,6.20170652 C15.4749981,6.52403535 15.4775543,7.04412327 15.806381,7.36337175 L20.2821448,11.7083217 L8.30857143,11.7083217 C4.26497143,11.7083217 0.975238095,14.9326368 0.975238095,18.8958275 C0.975238095,22.8590182 4.26497143,26.0833333 8.30857143,26.0833333 L11.2,26.0833333 C11.66288,26.0833333 12.0380952,25.7155795 12.0380952,25.2619041 C12.0380952,24.8082287 11.66288,24.4404749 11.2,24.4404749 L8.30857143,24.4404749 C5.18922286,24.4404749 2.65142857,21.9531461 2.65142857,18.8958275 C2.65142857,15.838509 5.18922286,13.3511802 8.30857143,13.3511802 L20.2445562,13.3511802 L15.8430057,17.7013462 C15.5170705,18.0234697 15.5192914,18.5435576 15.8479505,18.8630114 C16.011379,19.0218758 16.2247581,19.1011848 16.4380952,19.1011848 C16.6537371,19.1011848 16.869379,19.0200687 17.0332267,18.858165 L21.6940838,14.251713 C21.9391197,14.0115498 22.3363082,13.6092982 22.8856494,13.0449581 L22.8856922,13.0449998 C23.1759557,12.746811 23.1759516,12.2716996 22.885683,11.9735158 C22.3359109,11.4087525 21.9377474,11.0055554 21.6911924,10.7639245 Z" id="Shape" fill="#5C14F1"></path>
                </g>
            </g>
        </g>
    </g>
</svg>