<svg width="14px" height="13px" viewBox="0 0 14 13" version="1.1" xmlns="http://www.w3.org/2000/svg" xmlns:xlink="http://www.w3.org/1999/xlink">
    <g id="Page-1" stroke="none" stroke-width="1" fill="none" fill-rule="evenodd">
        <g id="Главная_Обмен" transform="translate(-141.000000, -437.000000)" fill="#00A478" fill-rule="nonzero">
            <g id="Group-2-Copy-2" transform="translate(120.000000, 413.000000)">
                <g id="Tether" transform="translate(12.000000, 14.000000)">
                    <path d="M21.1420308,10.4966154 L21.1420308,12.9715692 L17.3656615,12.9715692 L17.3666042,14.3925198 C20.3703803,14.5695588 22.5891692,15.2374895 22.5891692,16.0310154 C22.5891692,16.8277041 20.3526576,17.4977038 17.3306493,17.6714882 L17.3303385,22.8028308 L14.3656615,22.8028308 L14.3656615,17.6809846 C14.8244923,17.7154462 15.2832,17.7154462 15.7773538,17.7154462 L15.7773538,17.7153231 C12.0009108,17.7153231 8.96561231,16.9591385 8.96561231,16.0310154 C8.96561231,15.2218958 11.272443,14.5433561 14.3661028,14.3826542 L14.3656615,12.9372308 L10.5891446,12.9372308 L10.5891446,10.4966154 L21.1420308,10.4966154 Z M9.53031385,16.0310154 C9.77737846,16.3747692 11.8244308,16.8903385 15.7773538,16.8903385 C19.7656615,16.8903385 21.7773538,16.3747692 22.0244923,16.0310154 C21.8129508,15.7367746 20.2826872,14.9136564 17.3671666,14.6826427 L17.3656615,16.5810462 C16.8715077,16.6153846 16.3420308,16.6153846 15.8126769,16.5810462 C15.3185231,16.5810462 14.8244923,16.5465846 14.4008615,16.5465846 L14.4008615,16.5465846 L14.4006123,15.7206154 L14.3656615,15.7216 L14.3650901,14.6679841 C11.3341393,14.8727123 9.7460439,15.7007681 9.53031385,16.0310154 Z" id="Combined-Shape"></path>
                </g>
            </g>
        </g>
    </g>
</svg>